<?xml version="1.0" encoding="UTF-8" standalone="no"?>
<!-- Created with Inkscape (http://www.inkscape.org/) -->

<svg
   xmlns:dc="http://purl.org/dc/elements/1.1/"
   xmlns:cc="http://creativecommons.org/ns#"
   xmlns:rdf="http://www.w3.org/1999/02/22-rdf-syntax-ns#"
   xmlns:svg="http://www.w3.org/2000/svg"
   xmlns="http://www.w3.org/2000/svg"
   xmlns:sodipodi="http://sodipodi.sourceforge.net/DTD/sodipodi-0.dtd"
   xmlns:inkscape="http://www.inkscape.org/namespaces/inkscape"
   width="32"
   height="32"
   viewBox="0 0 8.4666667 8.4666667"
   version="1.1"
   id="svg1821"
   sodipodi:docname="favicon.svg"
   inkscape:export-filename="/home/user/code/fiber/doc/concept/resources/favicon3.png"
   inkscape:export-xdpi="300"
   inkscape:export-ydpi="300"
   inkscape:version="0.92.4 (f8dce91, 2019-08-02)">
  <defs
     id="defs1815" />
  <sodipodi:namedview
     id="base"
     pagecolor="#ffffff"
     bordercolor="#666666"
     borderopacity="1.0"
     inkscape:pageopacity="0.0"
     inkscape:pageshadow="2"
     inkscape:zoom="15.839192"
     inkscape:cx="32.973185"
     inkscape:cy="19.625944"
     inkscape:document-units="mm"
     inkscape:current-layer="layer1"
     showgrid="false"
     units="px"
     inkscape:window-width="3742"
     inkscape:window-height="2049"
     inkscape:window-x="0"
     inkscape:window-y="55"
     inkscape:window-maximized="1" />
  <metadata
     id="metadata1818">
    <rdf:RDF>
      <cc:Work
         rdf:about="">
        <dc:format>image/svg+xml</dc:format>
        <dc:type
           rdf:resource="http://purl.org/dc/dcmitype/StillImage" />
        <dc:title></dc:title>
      </cc:Work>
    </rdf:RDF>
  </metadata>
  <g
     inkscape:label="Layer 1"
     inkscape:groupmode="layer"
     id="layer1"
     transform="translate(0,-288.53333)">
    <path
       style="fill:#000000;fill-opacity:1;stroke:#000000;stroke-width:0.1;stroke-miterlimit:4;stroke-dasharray:none;stroke-opacity:0"
       id="path2418"
       d="m 5.4148648,290.82256 c -0.087246,-0.0839 -0.1928093,-0.14222 -0.301425,-0.19326 -0.06842,-0.0294 -0.1359424,-0.0627 -0.2078011,-0.0833 -0.038049,-0.0109 -0.061608,-0.0135 -0.100607,-0.0199 -0.0948,-0.0157 -0.1894554,-0.008 -0.283283,0.009 -0.063811,0.0143 -0.126559,0.0375 -0.1838881,0.0693 -0.016693,0.009 -0.065413,0.0393 -0.048831,0.0299 0.2195303,-0.12499 0.4384661,-0.25102 0.6576991,-0.37653 -0.1244627,0.085 -0.2307146,0.1936 -0.3384743,0.29828 -0.067762,0.0691 -0.1350248,0.13941 -0.1903635,0.21916 -0.026342,0.038 -0.043676,0.0693 -0.067094,0.10928 -0.07585,0.1385 -0.133396,0.28561 -0.1889918,0.43307 -0.064413,0.17378 -0.1023247,0.35534 -0.1274636,0.53849 -0.020667,0.19668 -0.040067,0.39342 -0.054779,0.59064 -0.024368,0.22828 -0.041078,0.4569 -0.049423,0.68631 -0.00748,0.23145 -0.00778,0.463 -0.00482,0.69452 6.85e-5,0.16433 0.00273,0.32865 0.00344,0.49298 7.937e-4,0.10016 0.00238,0.2003 0.00464,0.30044 0.00111,0.0435 0.00177,0.087 0.00204,0.13052 8.71e-5,0.0224 5.38e-5,0.0112 1.009e-4,0.0334 0,0 -0.7550537,0.38472 -0.7550537,0.38472 v 0 c 4.82e-5,-0.0223 1.43e-5,-0.0111 1.027e-4,-0.0335 2.91e-4,-0.0442 9.525e-4,-0.0884 0.00204,-0.13258 0.0022,-0.10165 0.00374,-0.20331 0.00438,-0.30498 4.498e-4,-0.16547 0.00265,-0.33094 0.00288,-0.49641 0.00364,-0.23332 0.00425,-0.46668 0.00962,-0.69996 0.0073,-0.22946 0.015552,-0.4593 0.044829,-0.68722 0.00869,-0.13589 0.016023,-0.27221 0.030335,-0.40766 0.00316,-0.0299 0.00783,-0.0596 0.010851,-0.0895 0.00322,-0.0319 0.00523,-0.0639 0.00784,-0.0959 0.00797,-0.0681 0.013118,-0.1216 0.025448,-0.18909 0.022548,-0.12342 0.054655,-0.24544 0.092796,-0.36486 0.050973,-0.15083 0.1101882,-0.29874 0.1781027,-0.44278 0.043494,-0.0839 0.09021,-0.16751 0.1505622,-0.24081 0.015465,-0.0188 0.03313,-0.0356 0.049397,-0.0537 0.016984,-0.0189 0.033567,-0.0381 0.050351,-0.0572 0.05678,-0.0562 0.115987,-0.1099 0.1729494,-0.16591 0.051075,-0.0502 0.099641,-0.1031 0.1573578,-0.14619 0.2567143,-0.15035 0.5125463,-0.30221 0.7701431,-0.45104 0.076686,-0.0443 0.1662983,-0.0644 0.2528247,-0.0773 0.1002257,-0.01 0.2001768,-0.008 0.29889,0.0146 0.1115779,0.0269 0.2169377,0.0711 0.3196907,0.12203 0.111982,0.0592 0.2181762,0.12766 0.3181014,0.20567 0,0 -0.7151312,0.4472 -0.7151312,0.4472 z"
       inkscape:connector-curvature="0" />
    <path
       style="fill:#000000;fill-opacity:1;stroke:#000000;stroke-width:0.1;stroke-miterlimit:4;stroke-dasharray:none;stroke-opacity:0"
       id="path2420"
       d="m 2.5517474,292.59343 c 0.4045926,0.0237 0.8099441,0.009 1.2148442,0.003 0.4533984,-0.008 0.9067448,-0.0179 1.3601327,-0.0261 0.1936985,-0.009 0.3893367,0.005 0.5821013,-0.019 0.059824,-0.01 0.1200346,-0.0161 0.1804516,-0.0204 0,0 -0.6758059,0.49999 -0.6758059,0.49999 v 0 c -0.058992,0.006 -0.117879,0.0134 -0.1770626,0.0174 -0.1875295,0.007 -0.3752275,-0.006 -0.5628282,-0.003 -0.4445839,-0.003 -0.8892239,-0.002 -1.3337231,0.008 -0.4228555,0.0113 -0.8458182,0.0189 -1.2685499,0.0337 0,0 0.6804399,-0.49437 0.6804399,-0.49437 z"
       inkscape:connector-curvature="0" />
  </g>
</svg>
